<svg xmlns="http://www.w3.org/2000/svg" width="36" height="36" viewBox="0 0 36 36">
  <path fill="#FFF" fill-rule="evenodd" d="M25.3476536,17.0156221 L18.9843779,10.6523464 C18.7734332,10.4179711 18.5097677,10.3007796 18.1933583,10.3007796 C17.8769489,10.3007796 17.6132834,10.4179711 17.4023464,10.6523464 C17.1679711,10.8632834 17.0507796,11.1269489 17.0507796,11.4433583 C17.0507796,11.7597677 17.1679711,12.0234332 17.4023464,12.2343779 L22.0429685,16.875 L10.125,16.875 C9.82030979,16.875 9.55664426,16.9863243 9.33398809,17.2089881 C9.11132426,17.4316443 9,17.6953098 9,18 C9,18.3046902 9.11132426,18.5683557 9.33398809,18.7910119 C9.55664426,19.0136757 9.82030979,19.125 10.125,19.125 L22.0429685,19.125 L17.4023464,23.7656221 C17.1679711,23.9765668 17.0507796,24.2402323 17.0507796,24.5566417 C17.0507796,24.8730511 17.1679711,25.1367166 17.4023464,25.3476536 C17.6132834,25.5820289 17.8769489,25.6992204 18.1933583,25.6992204 C18.5097677,25.6992204 18.7734332,25.5820289 18.9843779,25.3476536 L25.3476536,18.9843779 C25.4882834,18.8437481 25.5820289,18.6855472 25.6289055,18.5097677 C25.6757821,18.3339804 25.6757821,18.1640604 25.6289055,18 C25.6757821,17.8359396 25.6757821,17.6660196 25.6289055,17.4902323 C25.5820289,17.3144528 25.4882834,17.1562519 25.3476536,17.0156221 Z M18,0 C15.5156094,0 13.1777464,0.468742979 10.9863268,1.40625191 C8.79490723,2.34375319 6.88477404,3.62694638 5.25585906,5.25586213 C3.62694485,6.88477021 2.34375472,8.79490723 1.40625038,10.9863268 C0.468745277,13.1777464 0,15.5156094 0,18 C0,20.4843906 0.468745277,22.8222536 1.40625038,25.0136732 C2.34375472,27.2050928 3.62694485,29.115226 5.25585906,30.7441409 C6.88477404,32.3730551 8.79490723,33.6562453 10.9863268,34.5937496 C13.1777464,35.5312547 15.5156094,36 18,36 C20.4843906,36 22.8222536,35.5312547 25.0136732,34.5937496 C27.2050928,33.6562453 29.1152298,32.3730551 30.7441379,30.7441409 C32.3730536,29.115226 33.6562468,27.2050928 34.5937481,25.0136732 C35.531257,22.8222536 36,20.4843906 36,18 C36,15.5156094 35.531257,13.1777464 34.5937481,10.9863268 C33.6562468,8.79490723 32.3730536,6.88477021 30.7441379,5.25586213 C29.1152298,3.62694638 27.2050928,2.34375319 25.0136732,1.40625191 C22.8222536,0.468742979 20.4843906,0 18,0 Z M18,33.75 C15.8202996,33.75 13.7754,33.3398482 11.8652323,32.5195315 C9.95507234,31.6992148 8.28516255,30.5742255 6.85546851,29.1445315 C5.42577447,27.7148374 4.30078519,26.0449277 3.48046851,24.1347677 C2.66015183,22.2246 2.25,20.1797004 2.25,18 C2.25,15.8202996 2.66015183,13.7754 3.48046851,11.8652323 C4.30078519,9.95507234 5.42577447,8.28516255 6.85546851,6.85547234 C8.28516255,5.42577447 9.95507234,4.30078213 11.8652323,3.48047234 C13.7754,2.66015489 15.8202996,2.25 18,2.25 C20.1797004,2.25 22.2246,2.66015489 24.1347677,3.48047234 C26.0449277,4.30078213 27.7148374,5.42577447 29.1445277,6.85547234 C30.5742255,8.28516255 31.6992179,9.95507234 32.5195277,11.8652323 C33.3398451,13.7754 33.75,15.8202996 33.75,18 C33.75,20.1797004 33.3398451,22.2246 32.5195277,24.1347677 C31.6992179,26.0449277 30.5742255,27.7148374 29.1445277,29.1445315 C27.7148374,30.5742255 26.0449277,31.6992148 24.1347677,32.5195315 C22.2246,33.3398482 20.1797004,33.75 18,33.75 Z"/>
</svg>
