<svg xmlns="http://www.w3.org/2000/svg" width="28" height="28" viewBox="0 0 28 28">
  <path fill="#032B40" fill-rule="evenodd" d="M1281,1554 C1279.0677,1554 1277.24936,1554.31901 1275.54492,1554.95703 C1273.84049,1555.59506 1272.35482,1556.47005 1271.08789,1557.58203 C1269.82096,1558.69402 1268.82292,1559.99283 1268.09375,1561.47852 C1267.36458,1562.9642 1267,1564.55468 1267,1566.25 C1267,1567.21615 1267.12305,1568.15039 1267.36914,1569.05273 C1267.61524,1569.95508 1267.96614,1570.8164 1268.42188,1571.63672 C1268.87761,1572.45703 1269.42903,1573.21809 1270.07617,1573.91992 C1270.72331,1574.62175 1271.44791,1575.24609 1272.25,1575.79297 L1272.25,1582 L1278.375,1578.28125 C1278.8125,1578.35417 1279.24544,1578.40885 1279.67383,1578.44531 C1280.10222,1578.48177 1280.54427,1578.5 1281,1578.5 C1282.9323,1578.5 1284.75064,1578.18099 1286.45508,1577.54297 C1288.15951,1576.90494 1289.64518,1576.02995 1290.91211,1574.91797 C1292.17904,1573.80598 1293.17708,1572.50717 1293.90625,1571.02148 C1294.63542,1569.5358 1295,1567.94532 1295,1566.25 C1295,1564.55468 1294.63542,1562.9642 1293.90625,1561.47852 C1293.17708,1559.99283 1292.17904,1558.69402 1290.91211,1557.58203 C1289.64518,1556.47005 1288.15951,1555.59506 1286.45508,1554.95703 C1284.75064,1554.31901 1282.9323,1554 1281,1554 Z" transform="translate(-1267 -1554)"/>
</svg>
